<svg width="154" height="142" viewBox="0 0 154 142" fill="none" xmlns="http://www.w3.org/2000/svg">
<path d="M48.4788 18.7073H87.9154C90.1517 18.7073 91.9773 16.8817 91.9773 14.6454C91.9773 12.4091 90.1517 10.5836 87.9154 10.5836H48.4788C46.2425 10.5836 44.417 12.4091 44.417 14.6454C44.417 16.8752 46.2054 18.7073 48.4788 18.7073Z" fill="#EDF2F7" stroke="#EDF2F7" stroke-width="2"/>
<path d="M99.9793 28.1071C102.216 28.1071 104.041 26.2816 104.041 24.0453V5.06185C104.041 2.82555 102.216 1 99.9793 1C97.743 1 95.9175 2.82555 95.9175 5.06185V24.0453C95.9175 26.2816 97.743 28.1071 99.9793 28.1071Z" fill="#EDF2F7" stroke="#EDF2F7" stroke-width="2"/>
<path d="M36.599 28.1071C38.8353 28.1071 40.6608 26.2816 40.6608 24.0453V5.06185C40.6608 2.82555 38.8353 1 36.599 1C34.3627 1 32.5371 2.82555 32.5371 5.06185V24.0453C32.5371 26.2816 34.3627 28.1071 36.599 28.1071Z" fill="#EDF2F7" stroke="#EDF2F7" stroke-width="2"/>
<path d="M119.809 44.6515C119.809 42.4152 117.984 40.5897 115.748 40.5897H20.9222C18.6859 40.5897 16.8604 42.4152 16.8604 44.6515C16.8604 46.8878 18.6859 48.7134 20.9222 48.7134H115.778C117.99 48.7134 119.809 46.8813 119.809 44.6515Z" fill="#EDF2F7" stroke="#EDF2F7" stroke-width="2"/>
<path d="M97.6723 63.635C97.6723 61.3987 95.8468 59.5731 93.6105 59.5731H20.9222C18.6859 59.5731 16.8604 61.3987 16.8604 63.635C16.8604 65.8713 18.6859 67.6968 20.9222 67.6968H93.6411C95.8904 67.6968 97.6723 65.8581 97.6723 63.635Z" fill="#EDF2F7" stroke="#EDF2F7" stroke-width="2"/>
<path d="M20.9222 78.5566C18.6859 78.5566 16.8604 80.3821 16.8604 82.6184C16.8604 84.8547 18.6859 86.6803 20.9222 86.6803H62.0122C64.2485 86.6803 66.074 84.8547 66.074 82.6184C66.074 80.3821 64.2485 78.5566 62.0122 78.5566H20.9222Z" fill="#EDF2F7" stroke="#EDF2F7" stroke-width="2"/>
<path d="M135.578 76.5165C145.978 82.3685 153.03 93.5 153 106.256C153 106.257 153 106.258 153 106.258L152 106.256C152 124.504 137.15 139.354 118.901 139.354C106.256 139.354 95.2639 132.251 89.6913 121.81L135.578 76.5165ZM135.578 76.5165V14.5535C135.578 12.2972 133.793 10.5836 131.547 10.5836H109.41C107.173 10.5836 105.348 12.4091 105.348 14.6454C105.348 16.8817 107.173 18.7073 109.41 18.7073H127.454V73.2458C124.713 72.5335 121.842 72.1573 118.901 72.1573C100.1 72.1573 84.8028 87.455 84.8028 106.256C84.8028 109.168 85.1784 111.985 85.868 114.686H9.12369V18.7073H24.0453C26.2816 18.7073 28.1071 16.8817 28.1071 14.6454C28.1071 12.4091 26.2816 10.5836 24.0453 10.5836H5.06185C2.8658 10.5836 1 12.2778 1 14.5535V118.901C1 121.21 2.90075 122.81 5.09247 122.81H89.0976L135.578 76.5165ZM144.876 106.256V106.258C144.906 120.583 133.261 132.231 118.901 132.231C104.573 132.231 92.9265 120.584 92.9265 106.256C92.9265 91.9283 104.603 80.281 118.901 80.281C133.23 80.281 144.876 91.9276 144.876 106.256Z" fill="#EDF2F7" stroke="#EDF2F7" stroke-width="2"/>
<path d="M118.963 111.879C121.199 111.879 123.025 110.054 123.025 107.817V90.4262C123.025 88.1899 121.199 86.3643 118.963 86.3643C116.726 86.3643 114.901 88.1899 114.901 90.4262V107.817C114.901 110.091 116.733 111.879 118.963 111.879Z" fill="#EDF2F7" stroke="#EDF2F7" stroke-width="2"/>
<path d="M118.901 111.655C114.032 111.655 110.094 115.593 110.094 120.463C110.094 125.335 114.065 129.271 118.901 129.271C123.771 129.271 127.709 125.332 127.709 120.463C127.709 115.596 123.804 111.655 118.901 111.655ZM118.901 121.177C118.535 121.177 118.217 120.86 118.217 120.493C118.217 120.127 118.535 119.809 118.901 119.809C119.268 119.809 119.585 120.127 119.585 120.493C119.585 120.86 119.268 121.177 118.901 121.177Z" fill="#EDF2F7" stroke="#EDF2F7" stroke-width="2"/>
</svg>
