<svg width="150" height="119" viewBox="0 0 150 119" fill="none" xmlns="http://www.w3.org/2000/svg">
<path d="M118.084 43.3692V26.8374C118.084 22.5667 116.388 18.471 113.368 15.4512C110.348 12.4315 106.253 10.735 101.982 10.735H96.6146V5.36748C96.6146 3.94393 96.0491 2.57869 95.0425 1.5721C94.0359 0.565501 92.6706 0 91.2471 0C89.8235 0 88.4583 0.565501 87.4517 1.5721C86.4451 2.57869 85.8796 3.94393 85.8796 5.36748V10.735H32.2049V5.36748C32.2049 3.94393 31.6393 2.57869 30.6328 1.5721C29.6262 0.565501 28.2609 0 26.8374 0C25.4138 0 24.0486 0.565501 23.042 1.5721C22.0354 2.57869 21.4699 3.94393 21.4699 5.36748V10.735H16.1024C11.8318 10.735 7.73608 12.4315 4.71629 15.4512C1.6965 18.471 0 22.5667 0 26.8374V101.982C0 106.253 1.6965 110.348 4.71629 113.368C7.73608 116.388 11.8318 118.084 16.1024 118.084H112.717C122.166 118.012 131.24 114.382 138.131 107.917C145.023 101.453 149.226 92.63 149.903 83.2055C150.58 73.7809 147.682 64.4473 141.785 57.0645C135.888 49.6817 127.426 44.7918 118.084 43.3692V43.3692ZM16.1024 21.4699H21.4699V26.8374C21.4699 28.2609 22.0354 29.6262 23.042 30.6328C24.0486 31.6393 25.4138 32.2049 26.8374 32.2049C28.2609 32.2049 29.6262 31.6393 30.6328 30.6328C31.6393 29.6262 32.2049 28.2609 32.2049 26.8374V21.4699H85.8796V26.8374C85.8796 28.2609 86.4451 29.6262 87.4517 30.6328C88.4583 31.6393 89.8235 32.2049 91.2471 32.2049C92.6706 32.2049 94.0359 31.6393 95.0425 30.6328C96.0491 29.6262 96.6146 28.2609 96.6146 26.8374V21.4699H101.982C103.406 21.4699 104.771 22.0354 105.777 23.042C106.784 24.0486 107.35 25.4138 107.35 26.8374V42.9398H10.735V26.8374C10.735 25.4138 11.3005 24.0486 12.307 23.042C13.3136 22.0354 14.6789 21.4699 16.1024 21.4699ZM16.1024 107.35C14.6789 107.35 13.3136 106.784 12.307 105.777C11.3005 104.771 10.735 103.406 10.735 101.982V53.6748H86.47C82.8996 57.173 80.0631 61.3486 78.1267 65.9569C76.1903 70.5652 75.1928 75.5135 75.1928 80.5121C75.1928 85.5107 76.1903 90.4591 78.1267 95.0674C80.0631 99.6756 82.8996 103.851 86.47 107.35H16.1024ZM112.717 107.35C107.409 107.35 102.22 105.776 97.8069 102.827C93.3935 99.8777 89.9537 95.6862 87.9225 90.7823C85.8912 85.8785 85.3597 80.4823 86.3953 75.2764C87.4308 70.0705 89.9868 65.2885 93.7401 61.5352C97.4934 57.782 102.275 55.2259 107.481 54.1904C112.687 53.1549 118.083 53.6864 122.987 55.7176C127.891 57.7489 132.083 61.1887 135.031 65.6021C137.98 70.0155 139.554 75.2042 139.554 80.5121C139.554 87.6298 136.727 94.456 131.694 99.489C126.661 104.522 119.835 107.35 112.717 107.35V107.35Z" fill="#EDF2F7"/>
<path d="M124.095 69.1332C123.09 68.1335 121.729 67.5724 120.311 67.5724C118.893 67.5724 117.533 68.1335 116.527 69.1332L112.716 72.9441L108.905 69.1332C107.878 68.2539 106.558 67.7944 105.207 67.8466C103.856 67.8988 102.574 68.4587 101.619 69.4147C100.663 70.3706 100.103 71.652 100.05 73.0029C99.9983 74.3537 100.458 75.6746 101.337 76.7014L105.148 80.5123L101.337 84.3232C100.775 84.8043 100.319 85.3965 99.9967 86.0624C99.6745 86.7283 99.4935 87.4536 99.4649 88.1928C99.4364 88.932 99.5609 89.6692 99.8308 90.3579C100.101 91.0467 100.51 91.6723 101.033 92.1954C101.556 92.7185 102.182 93.1278 102.87 93.3976C103.559 93.6675 104.296 93.792 105.036 93.7635C105.775 93.7349 106.5 93.5539 107.166 93.2317C107.832 92.9095 108.424 92.4532 108.905 91.8913L112.716 88.0804L116.527 91.8913C117.554 92.7706 118.875 93.2301 120.226 93.1779C121.576 93.1258 122.858 92.5658 123.814 91.6099C124.77 90.6539 125.33 89.3725 125.382 88.0216C125.434 86.6708 124.975 85.35 124.095 84.3232L120.284 80.5123L124.095 76.7014C125.095 75.6957 125.656 74.3353 125.656 72.9173C125.656 71.4993 125.095 70.1389 124.095 69.1332V69.1332Z" fill="#EDF2F7"/>
</svg>
