<svg width="152" height="152" viewBox="0 0 152 152" fill="none" xmlns="http://www.w3.org/2000/svg">
<path d="M4.32398 151.516H147.676C148.624 151.516 149.533 151.139 150.203 150.469C150.873 149.799 151.25 148.89 151.25 147.942C151.25 102.839 117.496 66.2767 75.9889 66.2767C34.4818 66.2767 0.75 102.839 0.75 147.942C0.75 148.89 1.12654 149.799 1.79679 150.469C2.46704 151.139 3.3761 151.516 4.32398 151.516ZM144.025 144.368H7.90905C9.68634 104.914 39.5488 73.4246 75.9889 73.4246C112.429 73.4246 142.314 104.914 144.025 144.368Z" fill="#EDF2F7" stroke="#EDF2F7" stroke-width="0.5"/>
<path d="M112.271 37.0321V37.0319C112.271 29.856 110.143 22.8413 106.156 16.8748C102.17 10.9082 96.5031 6.2579 89.8734 3.51181C83.2438 0.76572 75.9487 0.0472175 68.9107 1.44716C61.8727 2.84711 55.4079 6.30263 50.3338 11.3767C45.2597 16.4509 41.8041 22.9157 40.4042 29.9537C39.0042 36.9917 39.7228 44.2868 42.4688 50.9164C45.2149 57.5461 49.8653 63.2125 55.8318 67.1992C61.7983 71.1859 68.8131 73.3138 75.989 73.3138V73.0638L75.9891 73.3138C85.6098 73.3079 94.8348 69.4835 101.638 62.6806C108.441 55.8778 112.265 46.6528 112.271 37.0321ZM96.5755 16.452C102.037 21.9097 105.111 29.311 105.123 37.0323C105.127 42.7953 103.422 48.4302 100.224 53.2241C97.025 58.018 92.4764 61.7556 87.1533 63.964C81.8301 66.1725 75.9716 66.7526 70.3187 65.6309C64.6658 64.5093 59.4726 61.7363 55.3959 57.6627C51.3193 53.5891 48.5423 48.398 47.4164 42.7459C46.2905 37.0939 46.8662 31.2349 49.0706 25.9101C51.275 20.5853 55.0092 16.0339 59.8007 12.8316C64.5922 9.6294 70.2257 7.92017 75.9888 7.92013C83.71 7.92594 91.1137 10.9943 96.5755 16.452Z" fill="#EDF2F7" stroke="#EDF2F7" stroke-width="0.5"/>
<path d="M85.6726 46.4558C84.7247 46.4558 83.8157 46.0792 83.1454 45.409C82.4752 44.7387 82.0986 43.8297 82.0986 42.8818V34.9264C82.0986 33.9785 82.4752 33.0695 83.1454 32.3992C83.8157 31.729 84.7247 31.3524 85.6726 31.3524C86.6205 31.3524 87.5295 31.729 88.1998 32.3992C88.87 33.0695 89.2466 33.9785 89.2466 34.9264V42.7669C89.262 43.2447 89.1813 43.7208 89.0094 44.167C88.8369 44.6144 88.5762 45.0226 88.2427 45.3672C87.9092 45.7118 87.5098 45.9858 87.0683 46.1728C86.6267 46.3598 86.1521 46.456 85.6726 46.4558ZM85.6726 46.4558C85.6726 46.4558 85.6725 46.4558 85.6725 46.4558L85.6726 46.2058V46.4558Z" fill="#EDF2F7" stroke="#EDF2F7" stroke-width="0.5"/>
<path d="M66.0837 46.4558C65.1359 46.4558 64.2268 46.0792 63.5566 45.409C62.8863 44.7387 62.5098 43.8297 62.5098 42.8818V34.9264C62.5098 33.9785 62.8863 33.0695 63.5566 32.3992C64.2268 31.729 65.1359 31.3524 66.0837 31.3524C67.0316 31.3524 67.9407 31.729 68.6109 32.3992C69.2812 33.0695 69.6577 33.9785 69.6577 34.9264V42.7669C69.6731 43.2447 69.5924 43.7208 69.4205 44.167C69.2481 44.6144 68.9873 45.0226 68.6539 45.3672C68.3204 45.7118 67.921 45.9858 67.4794 46.1728C67.0379 46.3598 66.5632 46.456 66.0837 46.4558ZM66.0837 46.4558C66.0837 46.4558 66.0836 46.4558 66.0836 46.4558L66.0837 46.2058V46.4558Z" fill="#EDF2F7" stroke="#EDF2F7" stroke-width="0.5"/>
<path d="M75.9895 87.4758L66.0564 70.1253L66.056 70.1245C65.582 69.3031 64.8012 68.7035 63.8852 68.4578C62.9693 68.212 61.9932 68.3402 61.1717 68.8141C60.3503 69.2881 59.7507 70.0689 59.505 70.9849C59.2592 71.9008 59.3874 72.8769 59.8613 73.6984L59.8614 73.6985L72.913 96.3006C72.9131 96.3008 72.9132 96.301 72.9133 96.3011C73.2234 96.8429 73.6709 97.2935 74.2106 97.6072C74.7498 97.9207 75.362 98.0867 75.9857 98.0885C76.6012 98.1008 77.2095 97.9539 77.7516 97.662C78.2944 97.3697 78.7523 96.9421 79.0809 96.4206L79.0811 96.4207L79.0859 96.4123L92.1381 73.8093L92.1381 73.8092C92.612 72.9877 92.7402 72.0116 92.4945 71.0957C92.2487 70.1797 91.6492 69.3989 90.8277 68.9249C90.0062 68.451 89.0302 68.3228 88.1142 68.5686C87.1982 68.8143 86.4174 69.4139 85.9435 70.2353L75.9895 87.4758Z" fill="#EDF2F7" stroke="#EDF2F7" stroke-width="0.5"/>
<path d="M104.84 125.163C105.51 125.833 106.42 126.209 107.367 126.209C108.315 126.209 109.224 125.833 109.895 125.163C110.565 124.492 110.941 123.583 110.941 122.635V103.578C110.941 102.63 110.565 101.721 109.895 101.051C109.224 100.38 108.315 100.004 107.367 100.004C106.42 100.004 105.51 100.38 104.84 101.051C104.17 101.721 103.793 102.63 103.793 103.578V122.635C103.793 123.583 104.17 124.492 104.84 125.163Z" fill="#EDF2F7" stroke="#EDF2F7" stroke-width="0.5"/>
<path d="M98.5032 116.681H116.054H116.098C117.046 116.681 117.955 116.304 118.625 115.634C119.296 114.964 119.672 114.055 119.672 113.107C119.672 112.159 119.296 111.25 118.625 110.58C117.955 109.909 117.046 109.533 116.098 109.533H98.5032C97.5553 109.533 96.6462 109.909 95.976 110.58C95.3057 111.25 94.9292 112.159 94.9292 113.107C94.9292 114.055 95.3057 114.964 95.976 115.634C96.6462 116.304 97.5553 116.681 98.5032 116.681Z" fill="#EDF2F7" stroke="#EDF2F7" stroke-width="0.5"/>
<path d="M73.4613 150.336C74.1316 151.006 75.0407 151.383 75.9885 151.383C76.9364 151.383 77.8455 151.006 78.5157 150.336C79.186 149.666 79.5625 148.757 79.5625 147.809V94.6254C79.5625 93.6775 79.186 92.7684 78.5157 92.0982C77.8455 91.4279 76.9364 91.0514 75.9885 91.0514C75.0407 91.0514 74.1316 91.4279 73.4613 92.0982C72.7911 92.7684 72.4146 93.6775 72.4146 94.6254V147.809C72.4146 148.757 72.7911 149.666 73.4613 150.336Z" fill="#EDF2F7" stroke="#EDF2F7" stroke-width="0.5"/>
</svg>
