<svg width="115" height="110" viewBox="0 0 115 110" fill="none" xmlns="http://www.w3.org/2000/svg">
<path fill-rule="evenodd" clip-rule="evenodd" d="M14.3478 105.218H100.435V2.39179C100.435 1.07111 101.505 0.000488281 102.826 0.000488281C104.147 0.000488281 105.217 1.07111 105.217 2.39179V105.218H112.391C113.712 105.218 114.782 106.288 114.782 107.609C114.782 108.93 113.712 110 112.391 110H2.3913C1.07062 110 0 108.93 0 107.609C0 106.288 1.07062 105.218 2.3913 105.218H9.5652V2.39179C9.5652 1.07111 10.6358 0.000488281 11.9565 0.000488281C13.2772 0.000488281 14.3478 1.07111 14.3478 2.39179V105.218Z" fill="#EDF2F7"/>
<path fill-rule="evenodd" clip-rule="evenodd" d="M21.5217 33.4784H88.478C89.7987 33.4784 90.8693 32.4078 90.8693 31.0871C90.8693 29.7664 89.7987 28.6958 88.478 28.6958H21.5217C20.201 28.6958 19.1304 29.7664 19.1304 31.0871C19.1304 32.4078 20.201 33.4784 21.5217 33.4784Z" fill="#EDF2F7"/>
<path fill-rule="evenodd" clip-rule="evenodd" d="M21.5217 47.8263H88.478C89.7987 47.8263 90.8693 46.7557 90.8693 45.435C90.8693 44.1143 89.7987 43.0437 88.478 43.0437H21.5217C20.201 43.0437 19.1304 44.1143 19.1304 45.435C19.1304 46.7557 20.201 47.8263 21.5217 47.8263Z" fill="#EDF2F7"/>
<path fill-rule="evenodd" clip-rule="evenodd" d="M21.5217 62.174H59.7825C61.1031 62.174 62.1737 61.1033 62.1737 59.7827C62.1737 58.462 61.1031 57.3914 59.7825 57.3914H21.5217C20.201 57.3914 19.1304 58.462 19.1304 59.7827C19.1304 61.1033 20.201 62.174 21.5217 62.174Z" fill="#EDF2F7"/>
<path fill-rule="evenodd" clip-rule="evenodd" d="M21.5217 76.5219H59.7825C61.1031 76.5219 62.1737 75.4512 62.1737 74.1306C62.1737 72.8099 61.1031 71.7393 59.7825 71.7393H21.5217C20.201 71.7393 19.1304 72.8099 19.1304 74.1306C19.1304 75.4512 20.201 76.5219 21.5217 76.5219Z" fill="#EDF2F7"/>
<path fill-rule="evenodd" clip-rule="evenodd" d="M21.5217 90.8698H59.7825C61.1031 90.8698 62.1737 89.7991 62.1737 88.4785C62.1737 87.1578 61.1031 86.0872 59.7825 86.0872H21.5217C20.201 86.0872 19.1304 87.1578 19.1304 88.4785C19.1304 89.7991 20.201 90.8698 21.5217 90.8698Z" fill="#EDF2F7"/>
<path fill-rule="evenodd" clip-rule="evenodd" d="M17.535 15.0762C18.4815 16.4966 20.5686 16.4966 21.515 15.0762L27.0689 6.70985L32.6716 15.0762C33.6181 16.4966 35.7052 16.4966 36.6516 15.0762L42.2932 6.70985L47.8082 15.0762C48.7546 16.4966 50.8418 16.4966 51.7882 15.0762L57.3914 6.70985L62.9448 15.0762C63.8912 16.4966 65.9784 16.4966 66.9248 15.0762L72.4755 6.70985L78.0814 15.0762C79.0278 16.4966 81.1149 16.4966 82.0614 15.0762L87.6357 6.70985L93.2718 15.0822C94.2208 16.4972 96.3031 16.4941 97.2478 15.0762L104.816 3.7175C105.548 2.61845 105.251 1.13384 104.152 0.401537C103.053 -0.330765 101.568 -0.0334525 100.836 1.0656L95.3455 9.51461L89.6257 1.05958C88.6766 -0.355432 86.5944 -0.352275 85.6497 1.0656L80.2074 9.51461L74.4931 1.0656C73.5466 -0.354861 71.4595 -0.354861 70.5131 1.0656L64.998 9.51461L59.3565 1.0656C58.4101 -0.354861 56.3229 -0.354861 55.3765 1.0656L49.829 9.51461L44.2199 1.0656C43.2735 -0.354861 41.1864 -0.354861 40.2399 1.0656L34.7107 9.51461L29.0833 1.0656C28.1369 -0.354861 26.0498 -0.354861 25.1033 1.0656L19.5347 9.51461L13.9468 1.0656C13.2145 -0.0334525 11.7298 -0.330765 10.6308 0.401537C9.53173 1.13384 9.23442 2.61845 9.96672 3.7175L17.535 15.0762Z" fill="#EDF2F7"/>
</svg>
