<svg width="109" height="110" viewBox="0 0 109 110" fill="none" xmlns="http://www.w3.org/2000/svg">
<path d="M102.673 49.3621V7.89793C102.671 5.80399 101.838 3.79649 100.357 2.31585C98.8766 0.835208 96.8691 0.00235172 94.7752 0H19.7448C17.6509 0.00235172 15.6434 0.835208 14.1627 2.31585C12.6821 3.79649 11.8493 5.80399 11.8469 7.89793V31.5917H7.89793C5.80399 31.5941 3.79649 32.4269 2.31585 33.9076C0.835208 35.3882 0.00235172 37.3957 0 39.4897V82.9283C0.00235172 85.0222 0.835208 87.0297 2.31585 88.5104C3.79649 89.991 5.80399 90.8239 7.89793 90.8262H59.2345V86.8773H14.7346C15.4311 85.6779 15.7973 84.3153 15.7959 82.9283V19.7448H98.7242V49.3621H102.673ZM3.94897 82.9283V39.4897C3.95021 38.4427 4.36666 37.439 5.10696 36.6987C5.84727 35.9584 6.85098 35.5419 7.89793 35.5407H11.8469V82.9283C11.8469 83.9756 11.4308 84.9801 10.6903 85.7206C9.9497 86.4612 8.94526 86.8773 7.89793 86.8773C6.8506 86.8773 5.84617 86.4612 5.10559 85.7206C4.36502 84.9801 3.94897 83.9756 3.94897 82.9283ZM15.7959 15.7959V7.89793C15.7971 6.85098 16.2136 5.84727 16.9539 5.10696C17.6942 4.36666 18.6979 3.95021 19.7448 3.94897H94.7752C95.8221 3.95021 96.8259 4.36666 97.5662 5.10696C98.3065 5.84727 98.7229 6.85098 98.7242 7.89793V15.7959H15.7959Z" fill="#EDF2F7"/>
<path d="M94.3027 60.666C92.6325 58.0278 90.2175 55.944 87.3632 54.6781C84.5088 53.4122 81.3432 53.021 78.2666 53.554C75.1899 54.087 72.3403 55.5201 70.0781 57.6724C67.8159 59.8246 66.2425 62.5993 65.557 65.6455C64.8715 68.6918 65.1045 71.873 66.2267 74.7868C67.3488 77.7007 69.3097 80.2164 71.8615 82.016C74.4132 83.8156 77.4412 84.8182 80.5627 84.8971C83.6842 84.976 86.759 84.1277 89.3984 82.4593C92.935 80.2165 95.4375 76.6624 96.3569 72.5768C97.2764 68.4911 96.5376 64.2076 94.3027 60.666V60.666ZM87.2874 79.1224C85.3073 80.3752 83.0002 81.0127 80.6578 80.9542C78.3154 80.8958 76.043 80.1441 74.1279 78.7941C72.2127 77.4442 70.7409 75.5566 69.8985 73.3702C69.0561 71.1837 68.881 68.7966 69.3953 66.5106C69.9096 64.2247 71.0903 62.1426 72.7879 60.5276C74.4856 58.9126 76.624 57.8373 78.9328 57.4377C81.2416 57.0381 83.617 57.3321 85.7587 58.2825C87.9004 59.2329 89.7121 60.7971 90.9649 62.7772C92.6407 65.4333 93.1947 68.6456 92.5053 71.7096C91.8159 74.7736 89.9394 77.4391 87.2874 79.1214V79.1224Z" fill="#EDF2F7"/>
<path d="M98.2257 85.3335C102.161 81.139 104.432 75.6535 104.612 69.9048C104.793 64.1561 102.871 58.5388 99.2076 54.1053C95.5437 49.6718 90.3889 46.7265 84.7091 45.8211C79.0292 44.9157 73.2142 46.1125 68.3535 49.1871C63.4927 52.2617 59.9199 57.0032 58.3044 62.5232C56.6889 68.0432 57.1416 73.9628 59.5777 79.1729C62.0138 84.3831 66.2661 88.5261 71.5378 90.8259C76.8096 93.1256 82.739 93.4242 88.2151 91.6657L98.1168 107.318C98.9681 108.62 100.297 109.535 101.817 109.865C103.338 110.195 104.927 109.914 106.241 109.083C107.556 108.251 108.49 106.936 108.843 105.421C109.196 103.906 108.939 102.313 108.128 100.986L98.2257 85.3335ZM64.2675 79.6657C62.1798 76.3655 61.1176 72.5203 61.2152 68.6163C61.3128 64.7124 62.5659 60.9251 64.816 57.7333C67.0661 54.5416 70.2121 52.0887 73.8562 50.6849C77.5004 49.2812 81.4789 48.9895 85.2888 49.8469C89.0987 50.7042 92.5688 52.6721 95.2602 55.5016C97.9517 58.3312 99.7437 61.8953 100.41 65.7432C101.075 69.5912 100.585 73.5502 99.0011 77.1196C97.417 80.689 94.81 83.7085 91.5097 85.7963C87.0826 88.5898 81.7281 89.5132 76.621 88.3639C71.5139 87.2146 67.0712 84.0865 64.2675 79.6657V79.6657ZM105.048 104.586C104.961 104.966 104.765 105.313 104.482 105.582C104.199 105.85 103.843 106.029 103.458 106.096C103.074 106.162 102.678 106.113 102.321 105.955C101.965 105.797 101.663 105.537 101.454 105.207L91.9081 90.1169C92.4871 89.8146 93.0592 89.4888 93.6209 89.1336C94.1827 88.7785 94.7234 88.4018 95.245 88.0082L104.79 103.097C104.929 103.316 105.024 103.56 105.068 103.815C105.112 104.071 105.105 104.333 105.048 104.586V104.586Z" fill="#EDF2F7"/>
<path d="M19.7449 7.89795H23.6938V11.8469H19.7449V7.89795Z" fill="#EDF2F7"/>
<path d="M27.6428 7.89795H31.5918V11.8469H27.6428V7.89795Z" fill="#EDF2F7"/>
<path d="M35.5406 7.89795H39.4896V11.8469H35.5406V7.89795Z" fill="#EDF2F7"/>
<path d="M21.7192 94.7751H63.1834V98.7241H21.7192V94.7751Z" fill="#EDF2F7"/>
<path d="M67.1324 94.7751H71.0814V98.7241H67.1324V94.7751Z" fill="#EDF2F7"/>
<path d="M84.903 29.6173V25.6683H59.2347C58.8646 25.6683 58.502 25.7723 58.1882 25.9685L49.6163 31.326C47.0415 28.2685 43.3985 26.3069 39.4287 25.8404C35.4588 25.3738 31.4603 26.4373 28.2469 28.8145C25.0334 31.1917 22.8464 34.704 22.1309 38.6366C21.4153 42.5692 22.2251 46.6267 24.3953 49.9834C26.5655 53.3402 29.9331 55.7439 33.8129 56.7056C37.6927 57.6672 41.7931 57.1145 45.2798 55.1599C48.7665 53.2052 51.3774 49.9956 52.5814 46.184C53.7853 42.3725 53.4918 38.2454 51.7605 34.6426L59.8009 29.6173H84.903ZM25.6685 41.4642C25.6703 39.3153 26.256 37.2073 27.3631 35.3655C28.4703 33.5238 30.0571 32.0175 31.954 31.0078L35.3847 41.3124L30.5284 51.0232C29.0231 49.9249 27.7983 48.4867 26.9538 46.8256C26.1093 45.1646 25.6689 43.3276 25.6685 41.4642ZM34.0576 52.795L38.0559 44.7984L44.3742 51.1167C42.8986 52.1692 41.2007 52.8681 39.4118 53.1595C37.6229 53.4508 35.7909 53.3268 34.0576 52.797V52.795ZM49.3623 41.4642C49.3642 43.9236 48.5961 46.3219 47.1657 48.3226L39.2416 40.398L35.6996 29.7565C37.6221 29.459 39.5884 29.64 41.4243 30.2833C43.2603 30.9266 44.9094 32.0125 46.2258 33.4448L42.3924 35.8409L44.4853 39.1896L48.3829 36.7536C49.03 38.2397 49.3634 39.8433 49.3623 41.4642V41.4642Z" fill="#EDF2F7"/>
<path d="M88.8517 25.6683H92.8007V29.6173H88.8517V25.6683Z" fill="#EDF2F7"/>
<path d="M65.158 33.5662H92.8007V37.5151H65.158V33.5662Z" fill="#EDF2F7"/>
<path d="M27.6428 63.1835H31.5918V67.1324H27.6428V63.1835Z" fill="#EDF2F7"/>
<path d="M35.5406 63.1835H51.3365V67.1324H35.5406V63.1835Z" fill="#EDF2F7"/>
<path d="M23.6938 71.0814H47.3876V75.0304H23.6938V71.0814Z" fill="#EDF2F7"/>
</svg>
