<svg width="130" height="120" viewBox="0 0 130 120" fill="none" xmlns="http://www.w3.org/2000/svg">
<path d="M120.1 14.5H98.5V8.39999C98.5 4.23314 95.1853 0.799988 91 0.799988C86.8147 0.799988 83.5 4.23314 83.5 8.39999V14.5H46.5V8.39999C46.5 4.23314 43.1853 0.799988 39 0.799988C34.8147 0.799988 31.5 4.23314 31.5 8.39999V14.5H10.3C4.98498 14.5 0.5 18.0665 0.5 23.5V109C0.5 114.329 4.87857 119.5 10.3 119.5H120C125.448 119.5 129.4 114.298 129.4 109V23.6048C129.451 20.8766 128.477 18.5902 126.795 16.9879C125.115 15.3882 122.761 14.5 120.1 14.5ZM120.1 112.5H10.4C9.70975 112.5 9.01544 112.073 8.47036 111.369C7.92811 110.669 7.60001 109.774 7.60001 109V46.5H122.6V108.986C122.552 109.803 122.277 110.71 121.82 111.399C121.361 112.093 120.772 112.5 120.1 112.5ZM10.3 21.5H31.5V26.1C31.5 30.2669 34.8147 33.7 39 33.7C43.1853 33.7 46.5 30.2669 46.5 26.1V21.5H83.5V26.1C83.5 30.2669 86.8147 33.7 91 33.7C95.1853 33.7 98.5 30.2669 98.5 26.1V21.5H120.1C120.949 21.5 121.54 21.6676 121.913 21.9654C122.263 22.2456 122.5 22.7069 122.5 23.5V39.5H7.5V23.5C7.5 22.7638 7.79427 22.2964 8.25235 21.991C8.73878 21.6667 9.45258 21.5 10.3 21.5ZM39 7.79999C39.2632 7.79999 39.5 8.01133 39.5 8.39999V26.2C39.5 26.5887 39.2632 26.8 39 26.8C38.7368 26.8 38.5 26.5887 38.5 26.2V8.39999C38.5 8.01133 38.7368 7.79999 39 7.79999ZM91 7.79999C91.2632 7.79999 91.5 8.01133 91.5 8.39999V26.2C91.5 26.5887 91.2632 26.8 91 26.8C90.7368 26.8 90.5 26.5887 90.5 26.2V8.39999C90.5 8.01133 90.7368 7.79999 91 7.79999Z" fill="#EDF2F7" stroke="#EDF2F7"/>
<path d="M36.5001 61.8C38.9239 61.8 40.9001 63.7762 40.9001 66.2C40.9001 68.6239 38.9239 70.6 36.5001 70.6C34.0762 70.6 32.1001 68.6239 32.1001 66.2C32.1001 63.7762 34.0762 61.8 36.5001 61.8ZM36.5001 55.8C30.7207 55.8 26.1001 60.5272 26.1001 66.2C26.1001 71.8762 30.8239 76.6 36.5001 76.6C42.1762 76.6 46.9001 71.8762 46.9001 66.2C46.9001 60.5272 42.2795 55.8 36.5001 55.8Z" fill="#EDF2F7" stroke="#EDF2F7"/>
<path d="M65.1998 61.8C67.6237 61.8 69.5998 63.7762 69.5998 66.2C69.5998 68.6239 67.6237 70.6 65.1998 70.6C62.776 70.6 60.7998 68.6239 60.7998 66.2C60.7998 63.7762 62.776 61.8 65.1998 61.8ZM65.1998 55.8C59.4204 55.8 54.7998 60.5272 54.7998 66.2C54.7998 71.8762 59.5237 76.6 65.1998 76.6C70.876 76.6 75.5998 71.8762 75.5998 66.2C75.5998 60.5272 70.9793 55.8 65.1998 55.8Z" fill="#EDF2F7" stroke="#EDF2F7"/>
<path d="M93.9 61.8C96.3238 61.8 98.3 63.7762 98.3 66.2C98.3 68.6239 96.3239 70.6 93.9 70.6C91.4761 70.6 89.5 68.6239 89.5 66.2C89.5 63.7694 91.3828 61.8 93.9 61.8ZM93.9 55.8C88.1206 55.8 83.5 60.5272 83.5 66.2C83.5 71.8762 88.2239 76.6 93.9 76.6C99.5761 76.6 104.3 71.8762 104.3 66.2C104.3 60.5239 99.5761 55.8 93.9 55.8Z" fill="#EDF2F7" stroke="#EDF2F7"/>
<path d="M36.5001 86.5C38.9239 86.5 40.9001 88.4761 40.9001 90.9C40.9001 93.3239 38.9239 95.3 36.5001 95.3C34.0762 95.3 32.1001 93.3239 32.1001 90.9C32.1001 88.4761 34.0762 86.5 36.5001 86.5ZM36.5001 80.5C30.7207 80.5 26.1001 85.2271 26.1001 90.9C26.1001 96.5761 30.8239 101.3 36.5001 101.3C42.1762 101.3 46.9001 96.5761 46.9001 90.9C46.9001 85.2271 42.2795 80.5 36.5001 80.5Z" fill="#EDF2F7" stroke="#EDF2F7"/>
<path d="M65.1998 86.5C67.6237 86.5 69.5998 88.4761 69.5998 90.9C69.5998 93.3239 67.6237 95.3 65.1998 95.3C62.776 95.3 60.7998 93.3238 60.7998 90.9C60.7998 88.4761 62.776 86.5 65.1998 86.5ZM65.1998 80.5C59.4204 80.5 54.7998 85.2271 54.7998 90.9C54.7998 96.5761 59.5237 101.3 65.1998 101.3C70.876 101.3 75.5998 96.5761 75.5998 90.9C75.5998 85.2271 70.9793 80.5 65.1998 80.5Z" fill="#EDF2F7" stroke="#EDF2F7"/>
<path d="M89.5 90.9V90.8907L89.4997 90.8815C89.4108 88.4823 91.3655 86.5 93.9 86.5C96.3239 86.5 98.3 88.4761 98.3 90.9C98.3 93.3239 96.3239 95.3 93.9 95.3C91.4761 95.3 89.5 93.3239 89.5 90.9ZM93.9 80.5C88.1206 80.5 83.5 85.2271 83.5 90.9C83.5 96.5761 88.2239 101.3 93.9 101.3C99.5761 101.3 104.3 96.5761 104.3 90.9C104.3 85.2239 99.5761 80.5 93.9 80.5Z" fill="#EDF2F7" stroke="#EDF2F7"/>
</svg>
