<svg width="81" height="110" viewBox="0 0 81 110" fill="none" xmlns="http://www.w3.org/2000/svg">
<path d="M80.6502 20.1667C80.6545 19.6829 80.4673 19.217 80.1295 18.8705L61.7962 0.537167C61.4513 0.197083 60.9842 0.009625 60.5 0.0165V0H5.5C2.4624 0 0 2.4624 0 5.5V104.5C0 107.538 2.4624 110 5.5 110H75.1667C78.2043 110 80.6667 107.538 80.6667 104.5V20.1667H80.6502ZM62.3333 6.259L74.4077 18.3333H64.1667C63.1542 18.3333 62.3333 17.5125 62.3333 16.5V6.259ZM77 104.5C77 105.512 76.1791 106.333 75.1667 106.333H5.5C4.48754 106.333 3.66667 105.512 3.66667 104.5V5.5C3.66667 4.48754 4.48754 3.66667 5.5 3.66667H58.6667V16.5C58.6667 19.5376 61.1291 22 64.1667 22H77V104.5Z" fill="#EDF2F7"/>
<path d="M18.3334 49.5C15.2958 49.5 12.8334 51.9624 12.8334 55C12.8334 58.0376 15.2958 60.5 18.3334 60.5C21.371 60.5 23.8334 58.0376 23.8334 55C23.8334 51.9624 21.371 49.5 18.3334 49.5ZM18.3334 56.8333C17.3209 56.8333 16.5 56.0125 16.5 55C16.5 53.9875 17.3209 53.1667 18.3334 53.1667C19.3458 53.1667 20.1667 53.9875 20.1667 55C20.1667 56.0125 19.3458 56.8333 18.3334 56.8333Z" fill="#EDF2F7"/>
<path d="M67.8333 53.1667H31.1666V56.8334H67.8333V53.1667Z" fill="#EDF2F7"/>
<path d="M18.3334 31.1667C15.2958 31.1667 12.8334 33.6291 12.8334 36.6667C12.8334 39.7044 15.2958 42.1667 18.3334 42.1667C21.371 42.1667 23.8334 39.7044 23.8334 36.6667C23.8334 33.6291 21.371 31.1667 18.3334 31.1667ZM18.3334 38.5001C17.3209 38.5001 16.5 37.6792 16.5 36.6667C16.5 35.6543 17.3209 34.8334 18.3334 34.8334C19.3458 34.8334 20.1667 35.6543 20.1667 36.6667C20.1667 37.6792 19.3458 38.5001 18.3334 38.5001Z" fill="#EDF2F7"/>
<path d="M67.8333 34.8333H31.1666V38.4999H67.8333V34.8333Z" fill="#EDF2F7"/>
<path d="M18.3334 67.8337C15.2958 67.8337 12.8334 70.2961 12.8334 73.3337C12.8334 76.3713 15.2958 78.8337 18.3334 78.8337C21.371 78.8337 23.8334 76.3713 23.8334 73.3337C23.8334 70.2961 21.371 67.8337 18.3334 67.8337ZM18.3334 75.1671C17.3209 75.1671 16.5 74.3462 16.5 73.3337C16.5 72.3213 17.3209 71.5004 18.3334 71.5004C19.3458 71.5004 20.1667 72.3213 20.1667 73.3337C20.1667 74.3462 19.3458 75.1671 18.3334 75.1671Z" fill="#EDF2F7"/>
<path d="M67.8333 71.5005H31.1666V75.1672H67.8333V71.5005Z" fill="#EDF2F7"/>
<path d="M18.3334 86.1667C15.2958 86.1667 12.8334 88.6291 12.8334 91.6667C12.8334 94.7043 15.2958 97.1667 18.3334 97.1667C21.371 97.1667 23.8334 94.7043 23.8334 91.6667C23.8334 88.6291 21.371 86.1667 18.3334 86.1667ZM18.3334 93.5001C17.3209 93.5001 16.5 92.6792 16.5 91.6667C16.5 90.6543 17.3209 89.8334 18.3334 89.8334C19.3458 89.8334 20.1667 90.6543 20.1667 91.6667C20.1667 92.6792 19.3458 93.5001 18.3334 93.5001Z" fill="#EDF2F7"/>
<path d="M67.8333 89.8333H31.1666V93.4999H67.8333V89.8333Z" fill="#EDF2F7"/>
</svg>
