<svg width="47" height="110" viewBox="0 0 47 110" fill="none" xmlns="http://www.w3.org/2000/svg">
<path d="M23.1 28.9667C30.9833 28.9667 37.5833 22.55 37.5833 14.4833C37.5833 6.41667 30.9833 0 23.1 0C15.2167 0 8.61666 6.41667 8.61666 14.4833C8.61666 22.55 15.2167 28.9667 23.1 28.9667ZM23.1 3.66667C28.9667 3.66667 33.9167 8.43333 33.9167 14.4833C33.9167 20.35 29.15 25.3 23.1 25.3C17.2333 25.3 12.2833 20.5333 12.2833 14.4833C12.2833 8.43333 17.2333 3.66667 23.1 3.66667ZM40.7 33.1833H5.5C2.38333 33.1833 0 35.5667 0 38.6833V72.2333C0 72.9667 0.549994 73.7 1.28333 74.0667L9.35 76.2667V108.167C9.35 109.267 10.0833 110 11.1833 110H35.2C36.3 110 37.0333 109.267 37.0333 108.167V76.2667L44.9167 74.0667C45.65 73.8833 46.2 73.15 46.2 72.2333V38.6833C46.2 35.75 43.8167 33.1833 40.7 33.1833ZM42.5333 70.95L34.65 73.15C33.9167 73.3333 33.3667 74.0667 33.3667 74.9833V106.333H13.0167V74.9833C13.0167 74.25 12.4667 73.5167 11.7333 73.15L3.66667 70.95V38.6833C3.66667 37.7667 4.4 36.85 5.5 36.85H40.7C41.6167 36.85 42.5333 37.5833 42.5333 38.6833V70.95V70.95ZM35.0167 50.4167H28.7833V44.3667C28.7833 43.2667 28.05 42.5333 26.95 42.5333H19.0667C17.9667 42.5333 17.2333 43.2667 17.2333 44.3667V50.4167H11C9.9 50.4167 9.16667 51.15 9.16667 52.25V60.3167C9.16667 61.4167 9.9 62.15 11 62.15H17.2333V68.2C17.2333 69.3 17.9667 70.0333 19.0667 70.0333H26.95C28.05 70.0333 28.7833 69.3 28.7833 68.2V62.15H35.0167C36.1167 62.15 36.85 61.4167 36.85 60.3167V52.25C36.85 51.3333 36.1167 50.4167 35.0167 50.4167ZM33.1833 58.4833H26.95C25.85 58.4833 25.1167 59.2167 25.1167 60.3167V66.3667H20.9V60.3167C20.9 59.2167 20.1667 58.4833 19.0667 58.4833H12.8333V54.0833H19.0667C20.1667 54.0833 20.9 53.35 20.9 52.25V46.2H25.1167V52.25C25.1167 53.35 25.85 54.0833 26.95 54.0833H33.1833V58.4833Z" fill="#EDF2F7"/>
</svg>
