<svg width="94" height="110" viewBox="0 0 94 110" fill="none" xmlns="http://www.w3.org/2000/svg">
<path d="M27.5 55C22.061 55 16.7442 56.6128 12.2218 59.6346C7.69948 62.6563 4.17473 66.9512 2.09332 71.9762C0.0119154 77.0012 -0.532676 82.5305 0.528417 87.865C1.58951 93.1995 4.20863 98.0995 8.05457 101.945C11.9005 105.791 16.8005 108.41 22.135 109.472C27.4695 110.533 32.9988 109.988 38.0238 107.907C43.0488 105.825 47.3437 102.301 50.3654 97.7782C53.3872 93.2558 55 87.939 55 82.5C54.9918 75.2091 52.0918 68.2191 46.9363 63.0637C41.7809 57.9082 34.7909 55.0082 27.5 55V55ZM27.5 106.333C22.7862 106.333 18.1783 104.936 14.2589 102.317C10.3395 99.6978 7.28477 95.9756 5.48088 91.6206C3.67699 87.2656 3.20501 82.4736 4.12463 77.8503C5.04424 73.2271 7.31415 68.9804 10.6473 65.6473C13.9805 62.3141 18.2271 60.0442 22.8504 59.1246C27.4736 58.205 32.2657 58.677 36.6206 60.4809C40.9756 62.2848 44.6979 65.3395 47.3167 69.2589C49.9355 73.1783 51.3333 77.7862 51.3333 82.5C51.3261 88.8188 48.8127 94.8766 44.3447 99.3447C39.8766 103.813 33.8188 106.326 27.5 106.333V106.333Z" fill="#EDF2F7"/>
<path d="M27.4996 69.6667C28.3126 69.6756 29.1229 69.7616 29.9196 69.9233L27.21 71.6283L29.1643 74.734L35.3518 70.8382C35.5647 70.7044 35.7478 70.5283 35.8898 70.3208C36.0317 70.1132 36.1295 69.8787 36.1769 69.6318C36.2244 69.3849 36.2205 69.1308 36.1656 68.8855C36.1108 68.6401 36.006 68.4087 35.8578 68.2055L31.3496 62.018L28.3833 64.1777L29.8408 66.1778C27.4992 65.8308 25.1102 65.9938 22.8373 66.6556C20.5645 67.3175 18.4615 68.4626 16.6723 70.0126C14.8831 71.5626 13.4499 73.4809 12.4708 75.6362C11.4918 77.7914 10.9899 80.1328 10.9997 82.5C10.9929 85.89 12.0369 89.1988 13.988 91.971L16.9892 89.8663C15.6411 87.9433 14.8467 85.6872 14.6922 83.3438C14.5378 81.0005 15.0294 78.6597 16.1134 76.5764C17.1974 74.493 18.8323 72.7471 20.84 71.5288C22.8477 70.3104 25.1512 69.6663 27.4996 69.6667V69.6667Z" fill="#EDF2F7"/>
<path d="M37.9334 74.923C39.2809 76.8461 40.0749 79.1019 40.2291 81.445C40.3833 83.7881 39.8916 86.1286 38.8076 88.2116C37.7237 90.2946 36.089 92.0403 34.0816 93.2585C32.0742 94.4768 29.771 95.121 27.4229 95.1209C26.6099 95.1118 25.7996 95.0258 25.0029 94.8642L27.7125 93.1574L25.7582 90.0535L19.5707 93.9494C19.3578 94.0831 19.1747 94.2592 19.0327 94.4668C18.8908 94.6743 18.7931 94.9088 18.7456 95.1557C18.6981 95.4026 18.702 95.6567 18.7569 95.902C18.8118 96.1474 18.9166 96.3789 19.0647 96.582L23.5729 102.77L26.5392 100.61L25.0725 98.6097C27.4139 98.957 29.8026 98.7943 32.0752 98.1329C34.3479 97.4715 36.4508 96.3269 38.2402 94.7775C40.0295 93.2281 41.463 91.3104 42.4425 89.1556C43.4221 87.0009 43.9245 84.6599 43.9155 82.293C43.9238 78.9022 42.8796 75.5925 40.9272 72.8202L37.9334 74.923Z" fill="#EDF2F7"/>
<path d="M93.3831 15.9115C93.363 15.8528 93.3483 15.7978 93.3226 15.741C93.2334 15.5415 93.1092 15.3596 92.956 15.2038L78.2893 0.537167C78.1335 0.383907 77.9516 0.259731 77.7521 0.1705C77.6964 0.147327 77.6395 0.127132 77.5817 0.11C77.4277 0.0570351 77.2674 0.0249709 77.105 0.0146665C77.0738 0.0201665 77.039 0 77.0005 0H18.3338C17.8476 0 17.3813 0.193154 17.0375 0.536971C16.6936 0.880787 16.5005 1.3471 16.5005 1.83333V51.3333H20.1672V3.66667H75.1671V16.5C75.1671 16.9862 75.3603 17.4525 75.7041 17.7964C76.0479 18.1402 76.5143 18.3333 77.0005 18.3333H89.8338V95.3333H53.1672V99H91.6671C92.1534 99 92.6197 98.8068 92.9635 98.463C93.3073 98.1192 93.5005 97.6529 93.5005 97.1666V16.5C93.5005 16.4615 93.4803 16.4267 93.4785 16.3863C93.4678 16.2245 93.4358 16.0649 93.3831 15.9115ZM78.8338 14.6667V6.259L87.2415 14.6667H78.8338Z" fill="#EDF2F7"/>
<path d="M82.5005 69.6668H71.5005V73.3335H82.5005V69.6668Z" fill="#EDF2F7"/>
<path d="M67.8336 69.6668H56.8336V73.3335H67.8336V69.6668Z" fill="#EDF2F7"/>
<path d="M82.5005 58.6667H51.3339V62.3334H82.5005V58.6667Z" fill="#EDF2F7"/>
<path d="M45.8333 36.6664H27.5V40.3331H45.8333V36.6664Z" fill="#EDF2F7"/>
<path d="M82.5002 36.6664H49.5002V40.3331H82.5002V36.6664Z" fill="#EDF2F7"/>
<path d="M82.5004 47.6666H64.1671V51.3332H82.5004V47.6666Z" fill="#EDF2F7"/>
<path d="M60.5 47.6666H27.5V51.3332H60.5V47.6666Z" fill="#EDF2F7"/>
<path d="M60.5 25.6669H27.5V29.3336H60.5V25.6669Z" fill="#EDF2F7"/>
<path d="M82.5004 25.6669H64.1671V29.3336H82.5004V25.6669Z" fill="#EDF2F7"/>
<path d="M82.4993 80.6669H58.666V84.3336H82.4993V80.6669Z" fill="#EDF2F7"/>
<path d="M38.5 14.6668H27.5V18.3335H38.5V14.6668Z" fill="#EDF2F7"/>
<path d="M49.5002 14.6668H42.1669V18.3335H49.5002V14.6668Z" fill="#EDF2F7"/>
</svg>
